<svg width="300" height="300" viewBox="0 0 300 300" fill="none" xmlns="http://www.w3.org/2000/svg">
<rect width="300" height="300" fill="white"/>
<rect x="20" y="37.5862" width="262.069" height="80" rx="16" fill="#333"/>
<rect x="20" y="138.276" width="262.069" height="151.724" rx="16" fill="#333"/>
<path d="M144.166 238.481L142.303 244.115H159.156L157.532 238.338H157.534C153.165 239.574 148.535 239.574 144.166 238.338L144.166 238.481Z" fill="white"/>
<path d="M150.61 162.945C143.011 162.945 135.726 165.963 130.352 171.335C124.981 176.708 121.962 183.993 121.962 191.592C121.962 208.256 135.856 229.789 150.61 229.789C165.364 229.789 179.257 208.256 179.257 191.592C179.257 183.993 176.239 176.708 170.868 171.335C165.494 165.963 158.209 162.945 150.61 162.945Z" fill="white"/>
<path d="M166.319 233.236L170.092 246.462H170.09C170.504 247.93 170.19 249.508 169.246 250.708C168.302 251.906 166.842 252.581 165.316 252.526H152.806C151.674 253.826 150.915 255.41 150.61 257.109C151.606 258.481 152.742 259.745 153.999 260.881C157.373 263.441 159.588 267.237 160.159 271.432C160.159 274.069 158.021 276.207 155.385 276.207C152.748 276.207 150.61 274.069 150.61 271.432C149.615 270.06 148.479 268.796 147.221 267.66C143.847 265.1 141.632 261.304 141.061 257.109C141.082 255.476 141.389 253.86 141.969 252.334H135.762C134.191 252.413 132.682 251.712 131.729 250.463C130.775 249.213 130.497 247.574 130.988 246.08L135.332 233.236C121.313 223.354 112.808 207.413 112.414 190.265C112.414 176.619 119.695 164.009 131.512 157.186C143.329 150.363 157.892 150.363 169.708 157.186C181.525 164.009 188.807 176.619 188.807 190.265C188.489 207.329 180.157 223.248 166.319 233.236Z" fill="white"/>
<circle cx="88.9655" cy="37.5862" r="27.5862" fill="white"/>
<circle cx="88.9655" cy="37.5862" r="21.4559" fill="#333"/>
<circle cx="210.345" cy="37.5862" r="27.5862" fill="white"/>
<circle cx="210.345" cy="37.5862" r="21.4559" fill="#333"/>
</svg>
