<svg width="300" height="300" viewBox="0 0 300 300" fill="none" xmlns="http://www.w3.org/2000/svg">
<rect width="300" height="300" fill="white"/>
<path d="M180.12 201.439L98.4518 119.818C97.2648 118.632 95.7795 118.038 94.2943 118.334C92.809 118.334 91.3237 118.928 90.1368 120.114C89.5422 120.709 89.246 121.005 88.9498 121.895L30.4459 261.69C29.8514 263.174 29.8514 264.659 30.4459 266.141C31.0404 267.625 32.2274 268.812 33.4165 269.406C34.011 269.702 34.9018 270 35.7925 270H36.9795L37.2758 269.704H37.8703L178.636 210.64C180.121 210.046 181.012 208.859 181.607 207.375C182.201 205.891 182.201 204.406 181.31 202.924C181.012 202.33 180.714 202.031 180.119 201.439L180.12 201.439ZM54.7966 233.791L66.0822 245.07L46.7799 253.084L54.7966 233.791ZM134.386 216.576L111.816 225.776L73.8035 188.082L83.0092 165.525L134.386 216.576Z" fill="#333333"/>
<path d="M117.458 121.302L115.378 123.381L123.693 131.692L125.773 129.613C133.198 122.193 138.246 112.694 140.622 102.307C142.702 92.8081 142.403 82.7173 139.731 73.5169L138.84 70.548L127.555 74.109L128.446 76.7798C130.822 84.1999 130.822 92.2141 129.336 99.6342C127.555 107.651 123.397 115.367 117.459 121.303L117.458 121.302Z" fill="#333333"/>
<path d="M116.567 56.5991L122.21 75.0004L136.168 61.9405L154.878 66.3917L150.424 47.6925L163.491 33.7427L145.08 28.1029L139.139 10L125.181 23.0599L106.471 18.6087L110.925 37.3079L97.8572 51.2577L116.567 56.5991Z" fill="#333333"/>
<path d="M229.417 161.074L226.447 160.184C217.241 157.513 207.145 157.215 197.64 159.294C187.245 161.668 177.743 166.714 170.319 174.134L168.239 176.212L176.554 184.523L178.634 182.444C184.573 176.509 191.997 172.353 200.313 170.573C207.737 168.793 215.756 169.089 223.18 171.463L225.852 172.354L229.417 161.074Z" fill="#333333"/>
<path d="M290 160.777L271.588 155.138L265.945 136.736L251.987 149.796L233.278 145.345L237.731 164.044L224.664 177.994L243.076 183.634L248.719 202.035L262.677 188.975L281.386 193.426L276.933 174.727L290 160.777Z" fill="#333333"/>
<path d="M194.077 105.869L199.72 124.27L213.678 111.21L232.388 115.661L227.934 96.962L241.002 83.0122L222.59 77.3724L216.947 58.9711L202.989 72.031L184.279 67.5798L188.733 86.279L175.666 100.229L194.077 105.869Z" fill="#333333"/>
<path d="M188.005 120.147L151.677 156.455L143.488 148.271L179.817 111.963L188.005 120.147Z" fill="#333333"/>
</svg>
